<svg width="353" height="353" viewBox="0 0 353 353" fill="none" xmlns="http://www.w3.org/2000/svg">
<circle cx="176.5" cy="176.5" r="176.5" fill="white"/>
<g clip-path="url(#clip0_524_3)">
<path d="M147.111 105.704L107.076 145.527L90.6992 129.237L117.118 102.958C124.639 95.4772 136.83 95.4772 144.351 102.958L147.111 105.704Z" fill="#2E3335" stroke="white" stroke-miterlimit="10"/>
<path d="M296.01 162.145C303.531 169.626 303.531 181.752 296.01 189.234L293.25 191.979L286.593 198.608L270.216 214.891L224.141 169.06L217.477 175.689L263.552 221.52L247.175 237.809L239.893 245.06L237.133 247.805C229.612 255.279 217.421 255.279 209.907 247.805L177.448 215.519L170.159 222.77L153.782 239.053L146.493 246.303L143.733 249.049C136.212 256.53 124.021 256.53 116.5 249.049L56.9905 189.855C49.4693 182.374 49.4693 170.248 56.9905 162.766L59.7503 160.021L67.0397 152.77L83.4163 136.488L107.075 160.021L123.452 176.311L130.741 183.562L138.024 176.311L130.734 169.06L114.365 152.777L154.4 112.954L170.77 129.237L178.066 136.488L184.731 129.859L201.1 113.569L207.765 106.947L210.525 104.202C218.046 96.7206 230.237 96.7206 237.758 104.202L240.511 106.94L247.175 113.569L263.552 129.859L270.216 136.488L296.01 162.145Z" fill="#2E3335" stroke="white" stroke-miterlimit="10"/>
</g>
<defs>
<clipPath id="clip0_524_3">
<rect width="251" height="158" fill="white" transform="translate(51 97)"/>
</clipPath>
</defs>
</svg>
