<svg width="497" height="100" viewBox="0 0 497 100" fill="none" xmlns="http://www.w3.org/2000/svg">
<path d="M22.4 4.3C30 4.3 36.5667 5.73333 42.1 8.6C47.7 11.4 51.9667 15.4333 54.9 20.7C57.9 25.9667 59.4 32.1667 59.4 39.3C59.4 46.4333 57.9 52.6333 54.9 57.9C51.9667 63.1 47.7 67.1 42.1 69.9C36.5667 72.6333 30 74 22.4 74H0.700001V4.3H22.4ZM22.4 66.5C31.4 66.5 38.2667 64.1333 43 59.4C47.7333 54.6 50.1 47.9 50.1 39.3C50.1 30.6333 47.7 23.8667 42.9 19C38.1667 14.1333 31.3333 11.7 22.4 11.7H9.8V66.5H22.4ZM121.403 44.5C121.403 46.2333 121.303 48.0667 121.103 50H77.3031C77.6365 55.4 79.4698 59.6333 82.8031 62.7C86.2031 65.7 90.3031 67.2 95.1031 67.2C99.0365 67.2 102.303 66.3 104.903 64.5C107.57 62.6333 109.436 60.1667 110.503 57.1H120.303C118.836 62.3667 115.903 66.6667 111.503 70C107.103 73.2667 101.636 74.9 95.1031 74.9C89.9031 74.9 85.2365 73.7333 81.1031 71.4C77.0365 69.0667 73.8365 65.7667 71.5031 61.5C69.1698 57.1667 68.0031 52.1667 68.0031 46.5C68.0031 40.8333 69.1365 35.8667 71.4031 31.6C73.6698 27.3333 76.8365 24.0667 80.9031 21.8C85.0365 19.4667 89.7698 18.3 95.1031 18.3C100.303 18.3 104.903 19.4333 108.903 21.7C112.903 23.9667 115.97 27.1 118.103 31.1C120.303 35.0333 121.403 39.5 121.403 44.5ZM112.003 42.6C112.003 39.1333 111.236 36.1667 109.703 33.7C108.17 31.1667 106.07 29.2667 103.403 28C100.803 26.6667 97.9031 26 94.7031 26C90.1031 26 86.1698 27.4667 82.9031 30.4C79.7031 33.3333 77.8698 37.4 77.4031 42.6H112.003ZM153.815 65.6L170.815 19.2H180.515L159.015 74H148.415L126.915 19.2H136.715L153.815 65.6ZM239.47 44.5C239.47 46.2333 239.37 48.0667 239.17 50H195.37C195.703 55.4 197.536 59.6333 200.87 62.7C204.27 65.7 208.37 67.2 213.17 67.2C217.103 67.2 220.37 66.3 222.97 64.5C225.636 62.6333 227.503 60.1667 228.57 57.1H238.37C236.903 62.3667 233.97 66.6667 229.57 70C225.17 73.2667 219.703 74.9 213.17 74.9C207.97 74.9 203.303 73.7333 199.17 71.4C195.103 69.0667 191.903 65.7667 189.57 61.5C187.236 57.1667 186.07 52.1667 186.07 46.5C186.07 40.8333 187.203 35.8667 189.47 31.6C191.736 27.3333 194.903 24.0667 198.97 21.8C203.103 19.4667 207.836 18.3 213.17 18.3C218.37 18.3 222.97 19.4333 226.97 21.7C230.97 23.9667 234.036 27.1 236.17 31.1C238.37 35.0333 239.47 39.5 239.47 44.5ZM230.07 42.6C230.07 39.1333 229.303 36.1667 227.77 33.7C226.236 31.1667 224.136 29.2667 221.47 28C218.87 26.6667 215.97 26 212.77 26C208.17 26 204.236 27.4667 200.97 30.4C197.77 33.3333 195.936 37.4 195.47 42.6H230.07ZM260.581 -9.53674e-07V74H251.481V-9.53674e-07H260.581ZM299.991 74.9C294.857 74.9 290.191 73.7333 285.991 71.4C281.857 69.0667 278.591 65.7667 276.191 61.5C273.857 57.1667 272.691 52.1667 272.691 46.5C272.691 40.9 273.891 35.9667 276.291 31.7C278.757 27.3667 282.091 24.0667 286.291 21.8C290.491 19.4667 295.191 18.3 300.391 18.3C305.591 18.3 310.291 19.4667 314.491 21.8C318.691 24.0667 321.991 27.3333 324.391 31.6C326.857 35.8667 328.091 40.8333 328.091 46.5C328.091 52.1667 326.824 57.1667 324.291 61.5C321.824 65.7667 318.457 69.0667 314.191 71.4C309.924 73.7333 305.191 74.9 299.991 74.9ZM299.991 66.9C303.257 66.9 306.324 66.1333 309.191 64.6C312.057 63.0667 314.357 60.7667 316.091 57.7C317.891 54.6333 318.791 50.9 318.791 46.5C318.791 42.1 317.924 38.3667 316.191 35.3C314.457 32.2333 312.191 29.9667 309.391 28.5C306.591 26.9667 303.557 26.2 300.291 26.2C296.957 26.2 293.891 26.9667 291.091 28.5C288.357 29.9667 286.157 32.2333 284.491 35.3C282.824 38.3667 281.991 42.1 281.991 46.5C281.991 50.9667 282.791 54.7333 284.391 57.8C286.057 60.8667 288.257 63.1667 290.991 64.7C293.724 66.1667 296.724 66.9 299.991 66.9ZM349.155 29.3C350.955 26.1667 353.622 23.5667 357.155 21.5C360.755 19.3667 364.922 18.3 369.655 18.3C374.522 18.3 378.922 19.4667 382.855 21.8C386.855 24.1333 389.989 27.4333 392.255 31.7C394.522 35.9 395.655 40.8 395.655 46.4C395.655 51.9333 394.522 56.8667 392.255 61.2C389.989 65.5333 386.855 68.9 382.855 71.3C378.922 73.7 374.522 74.9 369.655 74.9C364.989 74.9 360.855 73.8667 357.255 71.8C353.722 69.6667 351.022 67.0333 349.155 63.9V100H340.055V19.2H349.155V29.3ZM386.355 46.4C386.355 42.2667 385.522 38.6667 383.855 35.6C382.189 32.5333 379.922 30.2 377.055 28.6C374.255 27 371.155 26.2 367.755 26.2C364.422 26.2 361.322 27.0333 358.455 28.7C355.655 30.3 353.389 32.6667 351.655 35.8C349.989 38.8667 349.155 42.4333 349.155 46.5C349.155 50.6333 349.989 54.2667 351.655 57.4C353.389 60.4667 355.655 62.8333 358.455 64.5C361.322 66.1 364.422 66.9 367.755 66.9C371.155 66.9 374.255 66.1 377.055 64.5C379.922 62.8333 382.189 60.4667 383.855 57.4C385.522 54.2667 386.355 50.6 386.355 46.4ZM457.634 44.5C457.634 46.2333 457.534 48.0667 457.334 50H413.534C413.867 55.4 415.7 59.6333 419.034 62.7C422.434 65.7 426.534 67.2 431.334 67.2C435.267 67.2 438.534 66.3 441.134 64.5C443.8 62.6333 445.667 60.1667 446.734 57.1H456.534C455.067 62.3667 452.134 66.6667 447.734 70C443.334 73.2667 437.867 74.9 431.334 74.9C426.134 74.9 421.467 73.7333 417.334 71.4C413.267 69.0667 410.067 65.7667 407.734 61.5C405.4 57.1667 404.234 52.1667 404.234 46.5C404.234 40.8333 405.367 35.8667 407.634 31.6C409.9 27.3333 413.067 24.0667 417.134 21.8C421.267 19.4667 426 18.3 431.334 18.3C436.534 18.3 441.134 19.4333 445.134 21.7C449.134 23.9667 452.2 27.1 454.334 31.1C456.534 35.0333 457.634 39.5 457.634 44.5ZM448.234 42.6C448.234 39.1333 447.467 36.1667 445.934 33.7C444.4 31.1667 442.3 29.2667 439.634 28C437.034 26.6667 434.134 26 430.934 26C426.334 26 422.4 27.4667 419.134 30.4C415.934 33.3333 414.1 37.4 413.634 42.6H448.234ZM478.745 28.1C480.345 24.9667 482.612 22.5333 485.545 20.8C488.545 19.0667 492.179 18.2 496.445 18.2V27.6H494.045C483.845 27.6 478.745 33.1333 478.745 44.2V74H469.645V19.2H478.745V28.1Z" fill="white"/>
</svg>
