<svg width="1036" height="104" viewBox="0 0 1036 104" fill="none" xmlns="http://www.w3.org/2000/svg">
<mask id="path-1-outside-1_618_48" maskUnits="userSpaceOnUse" x="0" y="0" width="1036" height="104" fill="black">
<rect fill="white" width="1036" height="104"/>
<path d="M144.86 3.29999L120.64 102H86.9L73.32 41.52L59.46 102H25.72L1.78 3.29999H31.46L42.94 70.78L58.48 3.29999H88.58L103.7 70.22L115.18 3.29999H144.86ZM183.944 25.28V41.38H215.444V62.24H183.944V80.02H219.644V102H156.504V3.29999H219.644V25.28H183.944ZM296.203 51.32C301.99 52.6267 306.563 55.52 309.923 60C313.377 64.3867 315.103 69.4267 315.103 75.12C315.103 83.52 312.21 90.1 306.423 94.86C300.637 99.62 292.517 102 282.063 102H233.203V3.29999H280.523C290.603 3.29999 298.49 5.54 304.183 10.02C309.97 14.5 312.863 20.8 312.863 28.92C312.863 34.7067 311.323 39.56 308.243 43.48C305.257 47.3067 301.243 49.92 296.203 51.32ZM260.643 42.5H274.503C281.41 42.5 284.863 39.6533 284.863 33.96C284.863 28.08 281.41 25.14 274.503 25.14H260.643V42.5ZM276.603 79.88C283.51 79.88 286.963 76.9867 286.963 71.2C286.963 68.2133 286.03 65.9267 284.163 64.34C282.39 62.7533 279.823 61.96 276.463 61.96H260.643V79.88H276.603ZM392.986 3.29999C403.346 3.29999 412.399 5.39999 420.146 9.6C427.986 13.7067 434.006 19.4933 438.206 26.96C442.406 34.4267 444.506 42.9667 444.506 52.58C444.506 62.1 442.359 70.5933 438.066 78.06C433.866 85.5267 427.846 91.4067 420.006 95.7C412.259 99.9 403.253 102 392.986 102H353.926V3.29999H392.986ZM390.886 77.78C398.913 77.78 405.213 75.5867 409.786 71.2C414.359 66.8133 416.646 60.6067 416.646 52.58C416.646 44.46 414.359 38.2067 409.786 33.82C405.213 29.34 398.913 27.1 390.886 27.1H381.366V77.78H390.886ZM484.315 25.28V41.38H515.815V62.24H484.315V80.02H520.015V102H456.875V3.29999H520.015V25.28H484.315ZM570.814 102.98C559.334 102.98 549.908 100.273 542.534 94.86C535.161 89.3533 531.194 81.5133 530.634 71.34H559.894C560.174 74.7933 561.201 77.3133 562.974 78.9C564.748 80.4867 567.034 81.28 569.834 81.28C572.354 81.28 574.408 80.6733 575.994 79.46C577.674 78.1533 578.514 76.38 578.514 74.14C578.514 71.2467 577.161 69.0067 574.454 67.42C571.748 65.8333 567.361 64.06 561.294 62.1C554.854 59.9533 549.628 57.9 545.614 55.94C541.694 53.8867 538.241 50.9467 535.254 47.12C532.361 43.2 530.914 38.1133 530.914 31.86C530.914 25.5133 532.501 20.1 535.674 15.62C538.848 11.0467 543.234 7.59333 548.834 5.25999C554.434 2.92666 560.781 1.76 567.874 1.76C579.354 1.76 588.501 4.46666 595.314 9.87999C602.221 15.2 605.908 22.7133 606.374 32.42H576.554C576.461 29.4333 575.528 27.1933 573.754 25.7C572.074 24.2067 569.881 23.46 567.174 23.46C565.121 23.46 563.441 24.0667 562.134 25.28C560.828 26.4933 560.174 28.22 560.174 30.46C560.174 32.3267 560.874 33.96 562.274 35.36C563.768 36.6667 565.588 37.8333 567.734 38.86C569.881 39.7933 573.054 41.0067 577.254 42.5C583.508 44.6467 588.641 46.7933 592.654 48.94C596.761 50.9933 600.261 53.9333 603.154 57.76C606.141 61.4933 607.634 66.2533 607.634 72.04C607.634 77.92 606.141 83.1933 603.154 87.86C600.261 92.5267 596.014 96.2133 590.414 98.92C584.908 101.627 578.374 102.98 570.814 102.98ZM647.831 3.29999V102H620.391V3.29999H647.831ZM726.457 35.78C724.871 33.1667 722.677 31.16 719.877 29.76C717.171 28.36 713.951 27.66 710.217 27.66C703.311 27.66 697.851 29.9 693.837 34.38C689.917 38.86 687.957 44.88 687.957 52.44C687.957 60.9333 690.057 67.42 694.257 71.9C698.551 76.2867 704.757 78.48 712.877 78.48C722.491 78.48 729.351 74.14 733.457 65.46H705.877V45.72H757.117V72.32C754.971 77.5467 751.797 82.4467 747.597 87.02C743.491 91.5933 738.264 95.3733 731.917 98.36C725.571 101.253 718.337 102.7 710.217 102.7C700.324 102.7 691.551 100.6 683.897 96.4C676.337 92.1067 670.457 86.18 666.257 78.62C662.151 70.9667 660.097 62.24 660.097 52.44C660.097 42.7333 662.151 34.1 666.257 26.54C670.457 18.8867 676.337 12.96 683.897 8.76C691.457 4.46667 700.184 2.32 710.077 2.32C722.491 2.32 732.757 5.30667 740.877 11.28C748.997 17.2533 754.037 25.42 755.997 35.78H726.457ZM860.834 102H833.394L796.854 46.84V102H769.414V3.29999H796.854L833.394 59.16V3.29999H860.834V102ZM903.905 25.28V41.38H935.405V62.24H903.905V80.02H939.605V102H876.465V3.29999H939.605V25.28H903.905ZM1003.14 102L983.544 65.6H980.604V102H953.164V3.29999H996.424C1004.36 3.29999 1011.08 4.7 1016.58 7.5C1022.09 10.2067 1026.24 13.9867 1029.04 18.84C1031.84 23.6 1033.24 28.9667 1033.24 34.94C1033.24 41.66 1031.38 47.5867 1027.64 52.72C1024 57.76 1018.64 61.3533 1011.54 63.5L1033.8 102H1003.14ZM980.604 46.84H994.184C997.918 46.84 1000.72 45.9533 1002.58 44.18C1004.45 42.4067 1005.38 39.84 1005.38 36.48C1005.38 33.3067 1004.4 30.8333 1002.44 29.06C1000.58 27.1933 997.824 26.26 994.184 26.26H980.604V46.84Z"/>
</mask>
<path d="M144.86 3.3L145.831 3.53831L146.135 2.3H144.86V3.3ZM120.64 102V103H121.424L121.611 102.238L120.64 102ZM86.9 102L85.9243 102.219L86.0996 103H86.9V102ZM73.32 41.52L74.2957 41.3009L72.3453 41.2966L73.32 41.52ZM59.46 102V103H60.2568L60.4347 102.223L59.46 102ZM25.72 102L24.7482 102.236L24.9336 103H25.72V102ZM1.78 3.3V2.3H0.508451L0.808179 3.53571L1.78 3.3ZM31.46 3.3L32.4458 3.13228L32.3042 2.3H31.46V3.3ZM42.94 70.78L41.9542 70.9477L43.9145 71.0044L42.94 70.78ZM58.48 3.3V2.3H57.6841L57.5055 3.07558L58.48 3.3ZM88.58 3.3L89.5554 3.07961L89.3793 2.3H88.58V3.3ZM103.7 70.22L102.725 70.4404L104.686 70.3891L103.7 70.22ZM115.18 3.3V2.3H114.337L114.194 3.13092L115.18 3.3ZM144.86 3.3L143.889 3.06168L119.669 101.762L120.64 102L121.611 102.238L145.831 3.53831L144.86 3.3ZM120.64 102V101H86.9V102V103H120.64V102ZM86.9 102L87.8757 101.781L74.2957 41.3009L73.32 41.52L72.3443 41.7391L85.9243 102.219L86.9 102ZM73.32 41.52L72.3453 41.2966L58.4853 101.777L59.46 102L60.4347 102.223L74.2947 41.7434L73.32 41.52ZM59.46 102V101H25.72V102V103H59.46V102ZM25.72 102L26.6918 101.764L2.75182 3.06427L1.78 3.3L0.808179 3.53571L24.7482 102.236L25.72 102ZM1.78 3.3V4.3H31.46V3.3V2.3H1.78V3.3ZM31.46 3.3L30.4742 3.46771L41.9542 70.9477L42.94 70.78L43.9258 70.6123L32.4458 3.13228L31.46 3.3ZM42.94 70.78L43.9145 71.0044L59.4545 3.52441L58.48 3.3L57.5055 3.07558L41.9655 70.5556L42.94 70.78ZM58.48 3.3V4.3H88.58V3.3V2.3H58.48V3.3ZM88.58 3.3L87.6046 3.52038L102.725 70.4404L103.7 70.22L104.675 69.9996L89.5554 3.07961L88.58 3.3ZM103.7 70.22L104.686 70.3891L116.166 3.46907L115.18 3.3L114.194 3.13092L102.714 70.0509L103.7 70.22ZM115.18 3.3V4.3H144.86V3.3V2.3H115.18V3.3ZM183.944 25.28V24.28H182.944V25.28H183.944ZM183.944 41.38H182.944V42.38H183.944V41.38ZM215.444 41.38H216.444V40.38H215.444V41.38ZM215.444 62.24V63.24H216.444V62.24H215.444ZM183.944 62.24V61.24H182.944V62.24H183.944ZM183.944 80.02H182.944V81.02H183.944V80.02ZM219.644 80.02H220.644V79.02H219.644V80.02ZM219.644 102V103H220.644V102H219.644ZM156.504 102H155.504V103H156.504V102ZM156.504 3.3V2.3H155.504V3.3H156.504ZM219.644 3.3H220.644V2.3H219.644V3.3ZM219.644 25.28V26.28H220.644V25.28H219.644ZM183.944 25.28H182.944V41.38H183.944H184.944V25.28H183.944ZM183.944 41.38V42.38H215.444V41.38V40.38H183.944V41.38ZM215.444 41.38H214.444V62.24H215.444H216.444V41.38H215.444ZM215.444 62.24V61.24H183.944V62.24V63.24H215.444V62.24ZM183.944 62.24H182.944V80.02H183.944H184.944V62.24H183.944ZM183.944 80.02V81.02H219.644V80.02V79.02H183.944V80.02ZM219.644 80.02H218.644V102H219.644H220.644V80.02H219.644ZM219.644 102V101H156.504V102V103H219.644V102ZM156.504 102H157.504V3.3H156.504H155.504V102H156.504ZM156.504 3.3V4.3H219.644V3.3V2.3H156.504V3.3ZM219.644 3.3H218.644V25.28H219.644H220.644V3.3H219.644ZM219.644 25.28V24.28H183.944V25.28V26.28H219.644V25.28ZM296.203 51.32L295.936 50.3565L295.983 52.2954L296.203 51.32ZM309.923 60L309.123 60.6L309.13 60.6094L309.138 60.6186L309.923 60ZM306.423 94.86L307.059 95.6323L306.423 94.86ZM233.203 102H232.203V103H233.203V102ZM233.203 3.3V2.3H232.203V3.3H233.203ZM304.183 10.02L303.565 10.8059L303.571 10.8107L304.183 10.02ZM308.243 43.48L307.457 42.8622L307.455 42.8647L308.243 43.48ZM260.643 42.5H259.643V43.5H260.643V42.5ZM260.643 25.14V24.14H259.643V25.14H260.643ZM284.163 64.34L283.496 65.0852L283.506 65.0937L283.516 65.1019L284.163 64.34ZM260.643 61.96V60.96H259.643V61.96H260.643ZM260.643 79.88H259.643V80.88H260.643V79.88ZM296.203 51.32L295.983 52.2954C301.553 53.5532 305.915 56.3219 309.123 60.6L309.923 60L310.723 59.4C307.212 54.7181 302.427 51.7002 296.424 50.3446L296.203 51.32ZM309.923 60L309.138 60.6186C312.449 64.8252 314.103 69.6462 314.103 75.12H315.103H316.103C316.103 69.2071 314.304 63.9482 310.709 59.3814L309.923 60ZM315.103 75.12H314.103C314.103 83.2619 311.314 89.5422 305.788 94.0877L306.423 94.86L307.059 95.6323C313.106 90.6578 316.103 83.7781 316.103 75.12H315.103ZM306.423 94.86L305.788 94.0877C300.24 98.6517 292.375 101 282.063 101V102V103C292.658 103 301.034 100.588 307.059 95.6323L306.423 94.86ZM282.063 102V101H233.203V102V103H282.063V102ZM233.203 102H234.203V3.3H233.203H232.203V102H233.203ZM233.203 3.3V4.3H280.523V3.3V2.3H233.203V3.3ZM280.523 3.3V4.3C290.465 4.3 298.105 6.50991 303.565 10.8059L304.183 10.02L304.802 9.23413C298.874 4.57008 290.741 2.3 280.523 2.3V3.3ZM304.183 10.02L303.571 10.8107C309.084 15.0788 311.863 21.0706 311.863 28.92H312.863H313.863C313.863 20.5294 310.856 13.9212 304.795 9.22927L304.183 10.02ZM312.863 28.92H311.863C311.863 34.5202 310.377 39.1458 307.457 42.8622L308.243 43.48L309.03 44.0978C312.27 39.9742 313.863 34.8931 313.863 28.92H312.863ZM308.243 43.48L307.455 42.8647C304.611 46.5092 300.786 49.0091 295.936 50.3565L296.203 51.32L296.471 52.2835C301.7 50.8309 305.903 48.1042 309.032 44.0953L308.243 43.48ZM260.643 42.5V43.5H274.503V42.5V41.5H260.643V42.5ZM274.503 42.5V43.5C278.069 43.5 280.929 42.7691 282.909 41.1366C284.927 39.4736 285.863 37.0172 285.863 33.96H284.863H283.863C283.863 36.5961 283.073 38.4097 281.637 39.5934C280.164 40.8075 277.844 41.5 274.503 41.5V42.5ZM284.863 33.96H285.863C285.863 30.82 284.934 28.2966 282.922 26.5836C280.94 24.8968 278.075 24.14 274.503 24.14V25.14V26.14C277.838 26.14 280.153 26.8532 281.625 28.1064C283.066 29.3334 283.863 31.22 283.863 33.96H284.863ZM274.503 25.14V24.14H260.643V25.14V26.14H274.503V25.14ZM260.643 25.14H259.643V42.5H260.643H261.643V25.14H260.643ZM276.603 79.88V80.88C280.172 80.88 283.035 80.1362 285.016 78.4765C287.03 76.7884 287.963 74.2985 287.963 71.2H286.963H285.963C285.963 73.8882 285.17 75.7382 283.731 76.9435C282.259 78.1771 279.941 78.88 276.603 78.88V79.88ZM286.963 71.2H287.963C287.963 67.9903 286.95 65.396 284.811 63.5781L284.163 64.34L283.516 65.1019C285.11 66.4574 285.963 68.4364 285.963 71.2H286.963ZM284.163 64.34L284.83 63.5948C282.81 61.7873 279.968 60.96 276.463 60.96V61.96V62.96C279.678 62.96 281.97 63.7193 283.496 65.0852L284.163 64.34ZM276.463 61.96V60.96H260.643V61.96V62.96H276.463V61.96ZM260.643 61.96H259.643V79.88H260.643H261.643V61.96H260.643ZM260.643 79.88V80.88H276.603V79.88V78.88H260.643V79.88ZM420.146 9.59999L419.669 10.4791L419.676 10.4825L419.682 10.4858L420.146 9.59999ZM438.206 26.96L439.078 26.4697L438.206 26.96ZM438.066 78.06L437.199 77.5615L437.194 77.5697L438.066 78.06ZM420.006 95.7L420.483 96.5791L420.486 96.5771L420.006 95.7ZM353.926 102H352.926V103H353.926V102ZM353.926 3.3V2.3H352.926V3.3H353.926ZM409.786 71.2L409.094 70.4783L409.786 71.2ZM409.786 33.82L409.086 34.5344L409.094 34.5417L409.786 33.82ZM381.366 27.1V26.1H380.366V27.1H381.366ZM381.366 77.78H380.366V78.78H381.366V77.78ZM392.986 3.3V4.3C403.209 4.3 412.093 6.37132 419.669 10.4791L420.146 9.59999L420.623 8.72089C412.706 4.42867 403.483 2.3 392.986 2.3V3.3ZM420.146 9.59999L419.682 10.4858C427.357 14.5059 433.232 20.1579 437.334 27.4503L438.206 26.96L439.078 26.4697C434.779 18.8288 428.615 12.9074 420.61 8.71416L420.146 9.59999ZM438.206 26.96L437.334 27.4503C441.44 34.7496 443.506 43.117 443.506 52.58H444.506H445.506C445.506 42.8163 443.372 34.1037 439.078 26.4697L438.206 26.96ZM444.506 52.58H443.506C443.506 61.9439 441.396 70.2621 437.199 77.5615L438.066 78.06L438.933 78.5585C443.322 70.9246 445.506 62.256 445.506 52.58H444.506ZM438.066 78.06L437.194 77.5697C433.09 84.8661 427.209 90.6153 419.526 94.8229L420.006 95.7L420.486 96.5771C428.483 92.198 434.642 86.1872 438.938 78.5503L438.066 78.06ZM420.006 95.7L419.529 94.8209C411.951 98.9294 403.114 101 392.986 101V102V103C403.391 103 412.567 100.871 420.483 96.5791L420.006 95.7ZM392.986 102V101H353.926V102V103H392.986V102ZM353.926 102H354.926V3.3H353.926H352.926V102H353.926ZM353.926 3.3V4.3H392.986V3.3V2.3H353.926V3.3ZM390.886 77.78V78.78C399.099 78.78 405.673 76.5312 410.478 71.9217L409.786 71.2L409.094 70.4783C404.753 74.6422 398.726 76.78 390.886 76.78V77.78ZM409.786 71.2L410.478 71.9217C415.297 67.2991 417.646 60.8022 417.646 52.58H416.646H415.646C415.646 60.4111 413.421 66.3276 409.094 70.4783L409.786 71.2ZM416.646 52.58H417.646C417.646 44.2684 415.3 37.723 410.478 33.0983L409.786 33.82L409.094 34.5417C413.419 38.6903 415.646 44.6516 415.646 52.58H416.646ZM409.786 33.82L410.486 33.1056C405.681 28.3989 399.104 26.1 390.886 26.1V27.1V28.1C398.721 28.1 404.744 30.2811 409.086 34.5344L409.786 33.82ZM390.886 27.1V26.1H381.366V27.1V28.1H390.886V27.1ZM381.366 27.1H380.366V77.78H381.366H382.366V27.1H381.366ZM381.366 77.78V78.78H390.886V77.78V76.78H381.366V77.78ZM484.315 25.28V24.28H483.315V25.28H484.315ZM484.315 41.38H483.315V42.38H484.315V41.38ZM515.815 41.38H516.815V40.38H515.815V41.38ZM515.815 62.24V63.24H516.815V62.24H515.815ZM484.315 62.24V61.24H483.315V62.24H484.315ZM484.315 80.02H483.315V81.02H484.315V80.02ZM520.015 80.02H521.015V79.02H520.015V80.02ZM520.015 102V103H521.015V102H520.015ZM456.875 102H455.875V103H456.875V102ZM456.875 3.3V2.3H455.875V3.3H456.875ZM520.015 3.3H521.015V2.3H520.015V3.3ZM520.015 25.28V26.28H521.015V25.28H520.015ZM484.315 25.28H483.315V41.38H484.315H485.315V25.28H484.315ZM484.315 41.38V42.38H515.815V41.38V40.38H484.315V41.38ZM515.815 41.38H514.815V62.24H515.815H516.815V41.38H515.815ZM515.815 62.24V61.24H484.315V62.24V63.24H515.815V62.24ZM484.315 62.24H483.315V80.02H484.315H485.315V62.24H484.315ZM484.315 80.02V81.02H520.015V80.02V79.02H484.315V80.02ZM520.015 80.02H519.015V102H520.015H521.015V80.02H520.015ZM520.015 102V101H456.875V102V103H520.015V102ZM456.875 102H457.875V3.3H456.875H455.875V102H456.875ZM456.875 3.3V4.3H520.015V3.3V2.3H456.875V3.3ZM520.015 3.3H519.015V25.28H520.015H521.015V3.3H520.015ZM520.015 25.28V24.28H484.315V25.28V26.28H520.015V25.28ZM542.534 94.86L541.936 95.6612L541.943 95.6661L542.534 94.86ZM530.634 71.34V70.34H529.578L529.636 71.395L530.634 71.34ZM559.894 71.34L560.891 71.2592L560.817 70.34H559.894V71.34ZM562.974 78.9L562.308 79.6452L562.974 78.9ZM575.994 79.46L576.602 80.2544L576.608 80.2493L575.994 79.46ZM574.454 67.42L574.96 66.5573V66.5573L574.454 67.42ZM561.294 62.1L560.978 63.0487L560.987 63.0516L561.294 62.1ZM545.614 55.94L545.15 56.8258L545.163 56.8324L545.176 56.8386L545.614 55.94ZM535.254 47.12L534.45 47.7139L534.458 47.7247L534.466 47.7353L535.254 47.12ZM535.674 15.62L536.49 16.198L536.496 16.1901L535.674 15.62ZM548.834 5.25999L548.45 4.33692L548.834 5.25999ZM595.314 9.87999L594.692 10.6629L594.698 10.6676L594.704 10.6722L595.314 9.87999ZM606.374 32.42V33.42H607.424L607.373 32.372L606.374 32.42ZM576.554 32.42L575.555 32.4512L575.585 33.42H576.554V32.42ZM573.754 25.7L573.09 26.4474L573.1 26.4563L573.11 26.4649L573.754 25.7ZM562.134 25.28L562.815 26.0128L562.134 25.28ZM562.274 35.36L561.567 36.0671L561.591 36.0907L561.616 36.1126L562.274 35.36ZM567.734 38.86L567.303 39.7621L567.319 39.7699L567.336 39.7771L567.734 38.86ZM577.254 42.5L576.919 43.4423L576.93 43.4458L577.254 42.5ZM592.654 48.94L592.183 49.8218L592.195 49.8283L592.207 49.8344L592.654 48.94ZM603.154 57.76L602.357 58.3631L602.365 58.374L602.374 58.3847L603.154 57.76ZM603.154 87.86L602.312 87.321L602.308 87.327L602.305 87.3331L603.154 87.86ZM590.414 98.92L589.979 98.0196L589.973 98.0226L590.414 98.92ZM570.814 102.98V101.98C559.492 101.98 550.288 99.3123 543.126 94.0539L542.534 94.86L541.943 95.6661C549.527 101.234 559.176 103.98 570.814 103.98V102.98ZM542.534 94.86L543.133 94.0588C536.024 88.7497 532.179 81.1984 531.633 71.285L530.634 71.34L529.636 71.395C530.21 81.8282 534.298 89.9569 541.936 95.6612L542.534 94.86ZM530.634 71.34V72.34H559.894V71.34V70.34H530.634V71.34ZM559.894 71.34L558.898 71.4208C559.189 75.0141 560.271 77.8233 562.308 79.6452L562.974 78.9L563.641 78.1548C562.131 76.8033 561.16 74.5726 560.891 71.2592L559.894 71.34ZM562.974 78.9L562.308 79.6452C564.296 81.4243 566.834 82.28 569.834 82.28V81.28V80.28C567.234 80.28 565.2 79.5491 563.641 78.1548L562.974 78.9ZM569.834 81.28V82.28C572.516 82.28 574.799 81.6326 576.602 80.2543L575.994 79.46L575.387 78.6656C574.016 79.7141 572.193 80.28 569.834 80.28V81.28ZM575.994 79.46L576.608 80.2493C578.546 78.742 579.514 76.6698 579.514 74.14H578.514H577.514C577.514 76.0902 576.802 77.5647 575.38 78.6706L575.994 79.46ZM578.514 74.14H579.514C579.514 70.8569 577.942 68.3051 574.96 66.5573L574.454 67.42L573.949 68.2827C576.38 69.7083 577.514 71.6365 577.514 74.14H578.514ZM574.454 67.42L574.96 66.5573C572.155 64.913 567.682 63.1128 561.602 61.1484L561.294 62.1L560.987 63.0516C567.04 65.0072 571.34 66.7537 573.949 68.2827L574.454 67.42ZM561.294 62.1L561.611 61.1513C555.193 59.0122 550.012 56.9748 546.053 55.0414L545.614 55.94L545.176 56.8386C549.243 58.8252 554.515 60.8944 560.978 63.0487L561.294 62.1ZM545.614 55.94L546.078 55.0542C542.296 53.0731 538.95 50.2301 536.043 46.5047L535.254 47.12L534.466 47.7353C537.532 51.6632 541.092 54.7002 545.15 56.8258L545.614 55.94ZM535.254 47.12L536.059 46.5261C533.324 42.8214 531.914 37.9604 531.914 31.86H530.914H529.914C529.914 38.2662 531.398 43.5786 534.45 47.7139L535.254 47.12ZM530.914 31.86H531.914C531.914 25.687 533.455 20.4837 536.49 16.198L535.674 15.62L534.858 15.042C531.547 19.7163 529.914 25.3396 529.914 31.86H530.914ZM535.674 15.62L536.496 16.1901C539.551 11.7878 543.779 8.44978 549.219 6.18307L548.834 5.25999L548.45 4.33692C542.69 6.73688 538.145 10.3055 534.853 15.0499L535.674 15.62ZM548.834 5.25999L549.219 6.18307C554.678 3.90836 560.891 2.76 567.874 2.76V1.76V0.759998C560.671 0.759998 554.19 1.94497 548.45 4.33692L548.834 5.25999ZM567.874 1.76V2.76C579.201 2.76 588.105 5.4294 594.692 10.6629L595.314 9.87999L595.936 9.09703C588.897 3.50392 579.508 0.759998 567.874 0.759998V1.76ZM595.314 9.87999L594.704 10.6722C601.35 15.7913 604.921 23.0166 605.376 32.468L606.374 32.42L607.373 32.372C606.894 22.41 603.092 14.6087 595.925 9.08777L595.314 9.87999ZM606.374 32.42V31.42H576.554V32.42V33.42H606.374V32.42ZM576.554 32.42L577.554 32.3888C577.454 29.2054 576.448 26.661 574.398 24.9351L573.754 25.7L573.11 26.4649C574.607 27.7257 575.468 29.6612 575.555 32.4512L576.554 32.42ZM573.754 25.7L574.419 24.9526C572.52 23.2647 570.073 22.46 567.174 22.46V23.46V24.46C569.689 24.46 571.629 25.1486 573.09 26.4474L573.754 25.7ZM567.174 23.46V22.46C564.91 22.46 562.974 23.1361 561.454 24.5472L562.134 25.28L562.815 26.0128C563.909 24.9972 565.332 24.46 567.174 24.46V23.46ZM562.134 25.28L561.454 24.5472C559.894 25.9959 559.174 28.018 559.174 30.46H560.174H561.174C561.174 28.422 561.762 26.9907 562.815 26.0128L562.134 25.28ZM560.174 30.46H559.174C559.174 32.6092 559.992 34.4922 561.567 36.0671L562.274 35.36L562.982 34.6529C561.756 33.4278 561.174 32.0441 561.174 30.46H560.174ZM562.274 35.36L561.616 36.1126C563.19 37.4897 565.09 38.7037 567.303 39.7621L567.734 38.86L568.166 37.9579C566.086 36.9629 564.346 35.8436 562.933 34.6074L562.274 35.36ZM567.734 38.86L567.336 39.7771C569.514 40.7243 572.713 41.9467 576.919 43.4422L577.254 42.5L577.589 41.5578C573.395 40.0666 570.248 38.8624 568.133 37.9429L567.734 38.86ZM577.254 42.5L576.93 43.4458C583.153 45.5821 588.232 47.7089 592.183 49.8218L592.654 48.94L593.126 48.0582C589.05 45.8778 583.862 43.7112 577.579 41.5542L577.254 42.5ZM592.654 48.94L592.207 49.8344C596.17 51.8158 599.552 54.6536 602.357 58.3631L603.154 57.76L603.952 57.1569C600.97 53.2131 597.352 50.1709 593.102 48.0456L592.654 48.94ZM603.154 57.76L602.374 58.3847C605.19 61.9057 606.634 66.431 606.634 72.04H607.634H608.634C608.634 66.0756 607.092 61.081 603.935 57.1353L603.154 57.76ZM607.634 72.04H606.634C606.634 77.7412 605.189 82.8252 602.312 87.321L603.154 87.86L603.997 88.399C607.093 83.5614 608.634 78.0988 608.634 72.04H607.634ZM603.154 87.86L602.305 87.3331C599.524 91.8177 595.432 95.3843 589.979 98.0197L590.414 98.92L590.85 99.8203C596.597 97.0424 600.998 93.2356 604.004 88.3869L603.154 87.86ZM590.414 98.92L589.973 98.0226C584.632 100.648 578.256 101.98 570.814 101.98V102.98V103.98C578.493 103.98 585.183 102.605 590.855 99.8174L590.414 98.92ZM647.831 3.3H648.831V2.3H647.831V3.3ZM647.831 102V103H648.831V102H647.831ZM620.391 102H619.391V103H620.391V102ZM620.391 3.3V2.3H619.391V3.3H620.391ZM647.831 3.3H646.831V102H647.831H648.831V3.3H647.831ZM647.831 102V101H620.391V102V103H647.831V102ZM620.391 102H621.391V3.3H620.391H619.391V102H620.391ZM620.391 3.3V4.3H647.831V3.3V2.3H620.391V3.3ZM726.457 35.78L725.602 36.299L725.894 36.78H726.457V35.78ZM719.877 29.76L719.418 30.6483L719.43 30.6544L719.877 29.76ZM693.837 34.38L693.092 33.7127L693.085 33.7215L693.837 34.38ZM694.257 71.9L693.528 72.5839L693.535 72.5918L693.543 72.5995L694.257 71.9ZM733.457 65.46L734.361 65.8877L735.037 64.46H733.457V65.46ZM705.877 65.46H704.877V66.46H705.877V65.46ZM705.877 45.72V44.72H704.877V45.72H705.877ZM757.117 45.72H758.117V44.72H757.117V45.72ZM757.117 72.32L758.042 72.6999L758.117 72.5174V72.32H757.117ZM747.597 87.02L746.861 86.3436L746.853 86.3519L747.597 87.02ZM731.917 98.36L732.332 99.27L732.343 99.2648L731.917 98.36ZM683.897 96.4L683.403 97.2696L683.41 97.2732L683.416 97.2767L683.897 96.4ZM666.257 78.62L665.376 79.0928L665.379 79.0993L665.383 79.1056L666.257 78.62ZM666.257 26.54L665.38 26.0589L665.378 26.0627L666.257 26.54ZM683.897 8.76L684.383 9.63419L684.391 9.62956L683.897 8.76ZM740.877 11.28L740.285 12.0855L740.877 11.28ZM755.997 35.78V36.78H757.204L756.98 35.5941L755.997 35.78ZM726.457 35.78L727.312 35.261C725.625 32.4826 723.289 30.3477 720.324 28.8656L719.877 29.76L719.43 30.6544C722.066 31.9723 724.116 33.8507 725.602 36.299L726.457 35.78ZM719.877 29.76L720.337 28.8718C717.459 27.3836 714.075 26.66 710.217 26.66V27.66V28.66C713.826 28.66 716.882 29.3364 719.418 30.6482L719.877 29.76ZM710.217 27.66V26.66C703.073 26.66 697.324 28.9886 693.092 33.7128L693.837 34.38L694.582 35.0472C698.377 30.8114 703.548 28.66 710.217 28.66V27.66ZM693.837 34.38L693.085 33.7215C688.966 38.4288 686.957 44.7051 686.957 52.44H687.957H688.957C688.957 45.0549 690.869 39.2912 694.59 35.0385L693.837 34.38ZM687.957 52.44H686.957C686.957 61.0891 689.097 67.8576 693.528 72.5839L694.257 71.9L694.987 71.2161C691.018 66.9824 688.957 60.7775 688.957 52.44H687.957ZM694.257 71.9L693.543 72.5995C698.079 77.2345 704.578 79.48 712.877 79.48V78.48V77.48C704.936 77.48 699.022 75.3389 694.972 71.2005L694.257 71.9ZM712.877 78.48V79.48C717.838 79.48 722.149 78.3586 725.767 76.0701C729.384 73.7815 732.242 70.3672 734.361 65.8877L733.457 65.46L732.553 65.0323C730.566 69.2328 727.94 72.3285 724.698 74.3799C721.455 76.4314 717.53 77.48 712.877 77.48V78.48ZM733.457 65.46V64.46H705.877V65.46V66.46H733.457V65.46ZM705.877 65.46H706.877V45.72H705.877H704.877V65.46H705.877ZM705.877 45.72V46.72H757.117V45.72V44.72H705.877V45.72ZM757.117 45.72H756.117V72.32H757.117H758.117V45.72H757.117ZM757.117 72.32L756.192 71.9401C754.095 77.0473 750.989 81.8486 746.861 86.3436L747.597 87.02L748.334 87.6964C752.606 83.0447 755.846 78.0461 758.042 72.6999L757.117 72.32ZM747.597 87.02L746.853 86.3519C742.847 90.8128 737.734 94.5174 731.491 97.4552L731.917 98.36L732.343 99.2648C738.794 96.2293 744.134 92.3739 748.341 87.6881L747.597 87.02ZM731.917 98.36L731.502 97.4501C725.306 100.275 718.217 101.7 710.217 101.7V102.7V103.7C718.457 103.7 725.835 102.232 732.332 99.2699L731.917 98.36ZM710.217 102.7V101.7C700.469 101.7 691.865 99.6321 684.378 95.5233L683.897 96.4L683.416 97.2767C691.236 101.568 700.178 103.7 710.217 103.7V102.7ZM683.897 96.4L684.391 95.5304C676.99 91.3272 671.242 85.533 667.131 78.1344L666.257 78.62L665.383 79.1056C669.673 86.827 675.685 92.8861 683.403 97.2696L683.897 96.4ZM666.257 78.62L667.138 78.1472C663.119 70.657 661.097 62.0965 661.097 52.44H660.097H659.097C659.097 62.3835 661.182 71.2763 665.376 79.0928L666.257 78.62ZM660.097 52.44H661.097C661.097 42.8784 663.119 34.4129 667.136 27.0173L666.257 26.54L665.378 26.0627C661.182 33.7871 659.097 42.5883 659.097 52.44H660.097ZM666.257 26.54L667.134 27.0211C671.244 19.5314 676.989 13.7417 684.383 9.63416L683.897 8.76L683.412 7.88584C675.685 12.1783 669.67 18.242 665.38 26.0589L666.257 26.54ZM683.897 8.76L684.391 9.62956C691.781 5.43295 700.333 3.32 710.077 3.32V2.32V1.32C700.035 1.32 691.134 3.50038 683.403 7.89044L683.897 8.76ZM710.077 2.32V3.32C722.328 3.32 732.373 6.26535 740.285 12.0855L740.877 11.28L741.47 10.4745C733.142 4.34798 722.654 1.32 710.077 1.32V2.32ZM740.877 11.28L740.285 12.0855C748.191 17.9016 753.099 25.8417 755.015 35.9659L755.997 35.78L756.98 35.5941C754.975 24.9983 749.804 16.605 741.47 10.4745L740.877 11.28ZM755.997 35.78V34.78H726.457V35.78V36.78H755.997V35.78ZM860.834 102V103H861.834V102H860.834ZM833.394 102L832.561 102.552L832.857 103H833.394V102ZM796.854 46.84L797.688 46.2877L795.854 43.5197V46.84H796.854ZM796.854 102V103H797.854V102H796.854ZM769.414 102H768.414V103H769.414V102ZM769.414 3.3V2.3H768.414V3.3H769.414ZM796.854 3.3L797.691 2.75257L797.395 2.3H796.854V3.3ZM833.394 59.16L832.557 59.7074L834.394 62.5155V59.16H833.394ZM833.394 3.3V2.3H832.394V3.3H833.394ZM860.834 3.3H861.834V2.3H860.834V3.3ZM860.834 102V101H833.394V102V103H860.834V102ZM833.394 102L834.228 101.448L797.688 46.2877L796.854 46.84L796.021 47.3923L832.561 102.552L833.394 102ZM796.854 46.84H795.854V102H796.854H797.854V46.84H796.854ZM796.854 102V101H769.414V102V103H796.854V102ZM769.414 102H770.414V3.3H769.414H768.414V102H769.414ZM769.414 3.3V4.3H796.854V3.3V2.3H769.414V3.3ZM796.854 3.3L796.017 3.84741L832.557 59.7074L833.394 59.16L834.231 58.6126L797.691 2.75257L796.854 3.3ZM833.394 59.16H834.394V3.3H833.394H832.394V59.16H833.394ZM833.394 3.3V4.3H860.834V3.3V2.3H833.394V3.3ZM860.834 3.3H859.834V102H860.834H861.834V3.3H860.834ZM903.905 25.28V24.28H902.905V25.28H903.905ZM903.905 41.38H902.905V42.38H903.905V41.38ZM935.405 41.38H936.405V40.38H935.405V41.38ZM935.405 62.24V63.24H936.405V62.24H935.405ZM903.905 62.24V61.24H902.905V62.24H903.905ZM903.905 80.02H902.905V81.02H903.905V80.02ZM939.605 80.02H940.605V79.02H939.605V80.02ZM939.605 102V103H940.605V102H939.605ZM876.465 102H875.465V103H876.465V102ZM876.465 3.3V2.3H875.465V3.3H876.465ZM939.605 3.3H940.605V2.3H939.605V3.3ZM939.605 25.28V26.28H940.605V25.28H939.605ZM903.905 25.28H902.905V41.38H903.905H904.905V25.28H903.905ZM903.905 41.38V42.38H935.405V41.38V40.38H903.905V41.38ZM935.405 41.38H934.405V62.24H935.405H936.405V41.38H935.405ZM935.405 62.24V61.24H903.905V62.24V63.24H935.405V62.24ZM903.905 62.24H902.905V80.02H903.905H904.905V62.24H903.905ZM903.905 80.02V81.02H939.605V80.02V79.02H903.905V80.02ZM939.605 80.02H938.605V102H939.605H940.605V80.02H939.605ZM939.605 102V101H876.465V102V103H939.605V102ZM876.465 102H877.465V3.3H876.465H875.465V102H876.465ZM876.465 3.3V4.3H939.605V3.3V2.3H876.465V3.3ZM939.605 3.3H938.605V25.28H939.605H940.605V3.3H939.605ZM939.605 25.28V24.28H903.905V25.28V26.28H939.605V25.28ZM1003.14 102L1002.26 102.474L1002.55 103H1003.14V102ZM983.544 65.6L984.425 65.1259L984.142 64.6H983.544V65.6ZM980.604 65.6V64.6H979.604V65.6H980.604ZM980.604 102V103H981.604V102H980.604ZM953.164 102H952.164V103H953.164V102ZM953.164 3.3V2.3H952.164V3.3H953.164ZM1016.58 7.5L1016.13 8.39146L1016.14 8.39745L1016.58 7.5ZM1029.04 18.84L1028.18 19.3397L1028.18 19.347L1029.04 18.84ZM1027.64 52.72L1026.84 52.1318L1026.83 52.1345L1027.64 52.72ZM1011.54 63.5L1011.25 62.5429L1010.05 62.9083L1010.68 64.0005L1011.54 63.5ZM1033.8 102V103H1035.54L1034.67 101.499L1033.8 102ZM980.604 46.84H979.604V47.84H980.604V46.84ZM1002.58 44.18L1001.9 43.455V43.455L1002.58 44.18ZM1002.44 29.06L1001.74 29.7671L1001.75 29.7848L1001.77 29.8015L1002.44 29.06ZM980.604 26.26V25.26H979.604V26.26H980.604ZM1003.14 102L1004.02 101.526L984.425 65.1259L983.544 65.6L982.664 66.0741L1002.26 102.474L1003.14 102ZM983.544 65.6V64.6H980.604V65.6V66.6H983.544V65.6ZM980.604 65.6H979.604V102H980.604H981.604V65.6H980.604ZM980.604 102V101H953.164V102V103H980.604V102ZM953.164 102H954.164V3.3H953.164H952.164V102H953.164ZM953.164 3.3V4.3H996.424V3.3V2.3H953.164V3.3ZM996.424 3.3V4.3C1004.24 4.3 1010.8 5.68015 1016.13 8.39138L1016.58 7.5L1017.04 6.60861C1011.36 3.71984 1004.47 2.3 996.424 2.3V3.3ZM1016.58 7.5L1016.14 8.39745C1021.49 11.0253 1025.49 14.6745 1028.18 19.3397L1029.04 18.84L1029.91 18.3403C1027 13.2989 1022.69 9.38802 1017.03 6.60255L1016.58 7.5ZM1029.04 18.84L1028.18 19.347C1030.88 23.9409 1032.24 29.1299 1032.24 34.94H1033.24H1034.24C1034.24 28.8034 1032.8 23.2591 1029.91 18.333L1029.04 18.84ZM1033.24 34.94H1032.24C1032.24 41.4618 1030.44 47.1798 1026.84 52.1318L1027.64 52.72L1028.45 53.3082C1032.32 47.9936 1034.24 41.8582 1034.24 34.94H1033.24ZM1027.64 52.72L1026.83 52.1345C1023.35 56.9646 1018.18 60.4471 1011.25 62.5429L1011.54 63.5L1011.83 64.4571C1019.1 62.2596 1024.66 58.5554 1028.45 53.3055L1027.64 52.72ZM1011.54 63.5L1010.68 64.0005L1032.94 102.501L1033.8 102L1034.67 101.499L1012.41 62.9995L1011.54 63.5ZM1033.8 102V101H1003.14V102V103H1033.8V102ZM980.604 46.84V47.84H994.184V46.84V45.84H980.604V46.84ZM994.184 46.84V47.84C998.059 47.84 1001.15 46.9206 1003.27 44.905L1002.58 44.18L1001.9 43.455C1000.28 44.9861 997.776 45.84 994.184 45.84V46.84ZM1002.58 44.18L1003.27 44.905C1005.39 42.8899 1006.38 40.0264 1006.38 36.48H1005.38H1004.38C1004.38 39.6536 1003.51 41.9234 1001.9 43.455L1002.58 44.18ZM1005.38 36.48H1006.38C1006.38 33.0857 1005.33 30.3191 1003.12 28.3185L1002.44 29.06L1001.77 29.8015C1003.48 31.3475 1004.38 33.5276 1004.38 36.48H1005.38ZM1002.44 29.06L1003.15 28.3529C1001.04 26.2369 997.987 25.26 994.184 25.26V26.26V27.26C997.662 27.26 1000.12 28.1498 1001.74 29.7671L1002.44 29.06ZM994.184 26.26V25.26H980.604V26.26V27.26H994.184V26.26ZM980.604 26.26H979.604V46.84H980.604H981.604V26.26H980.604Z" fill="#999999" mask="url(#path-1-outside-1_618_48)"/>
</svg>
