<svg width="1033" height="102" viewBox="0 0 1033 102" fill="none" xmlns="http://www.w3.org/2000/svg">
<path d="M143.86 2.29999L119.64 101H85.9L72.32 40.52L58.46 101H24.72L0.78 2.29999H30.46L41.94 69.78L57.48 2.29999H87.58L102.7 69.22L114.18 2.29999H143.86ZM182.944 24.28V40.38H214.444V61.24H182.944V79.02H218.644V101H155.504V2.29999H218.644V24.28H182.944ZM295.203 50.32C300.99 51.6267 305.563 54.52 308.923 59C312.377 63.3867 314.103 68.4267 314.103 74.12C314.103 82.52 311.21 89.1 305.423 93.86C299.637 98.62 291.517 101 281.063 101H232.203V2.29999H279.523C289.603 2.29999 297.49 4.54 303.183 9.02C308.97 13.5 311.863 19.8 311.863 27.92C311.863 33.7067 310.323 38.56 307.243 42.48C304.257 46.3067 300.243 48.92 295.203 50.32ZM259.643 41.5H273.503C280.41 41.5 283.863 38.6533 283.863 32.96C283.863 27.08 280.41 24.14 273.503 24.14H259.643V41.5ZM275.603 78.88C282.51 78.88 285.963 75.9867 285.963 70.2C285.963 67.2133 285.03 64.9267 283.163 63.34C281.39 61.7533 278.823 60.96 275.463 60.96H259.643V78.88H275.603ZM391.986 2.29999C402.346 2.29999 411.399 4.39999 419.146 8.6C426.986 12.7067 433.006 18.4933 437.206 25.96C441.406 33.4267 443.506 41.9667 443.506 51.58C443.506 61.1 441.359 69.5933 437.066 77.06C432.866 84.5267 426.846 90.4067 419.006 94.7C411.259 98.9 402.253 101 391.986 101H352.926V2.29999H391.986ZM389.886 76.78C397.913 76.78 404.213 74.5867 408.786 70.2C413.359 65.8133 415.646 59.6067 415.646 51.58C415.646 43.46 413.359 37.2067 408.786 32.82C404.213 28.34 397.913 26.1 389.886 26.1H380.366V76.78H389.886ZM483.315 24.28V40.38H514.815V61.24H483.315V79.02H519.015V101H455.875V2.29999H519.015V24.28H483.315ZM569.814 101.98C558.334 101.98 548.908 99.2733 541.534 93.86C534.161 88.3533 530.194 80.5133 529.634 70.34H558.894C559.174 73.7933 560.201 76.3133 561.974 77.9C563.748 79.4867 566.034 80.28 568.834 80.28C571.354 80.28 573.408 79.6733 574.994 78.46C576.674 77.1533 577.514 75.38 577.514 73.14C577.514 70.2467 576.161 68.0067 573.454 66.42C570.748 64.8333 566.361 63.06 560.294 61.1C553.854 58.9533 548.628 56.9 544.614 54.94C540.694 52.8867 537.241 49.9467 534.254 46.12C531.361 42.2 529.914 37.1133 529.914 30.86C529.914 24.5133 531.501 19.1 534.674 14.62C537.848 10.0467 542.234 6.59333 547.834 4.25999C553.434 1.92666 559.781 0.759997 566.874 0.759997C578.354 0.759997 587.501 3.46666 594.314 8.87999C601.221 14.2 604.908 21.7133 605.374 31.42H575.554C575.461 28.4333 574.528 26.1933 572.754 24.7C571.074 23.2067 568.881 22.46 566.174 22.46C564.121 22.46 562.441 23.0667 561.134 24.28C559.828 25.4933 559.174 27.22 559.174 29.46C559.174 31.3267 559.874 32.96 561.274 34.36C562.768 35.6667 564.588 36.8333 566.734 37.86C568.881 38.7933 572.054 40.0067 576.254 41.5C582.508 43.6467 587.641 45.7933 591.654 47.94C595.761 49.9933 599.261 52.9333 602.154 56.76C605.141 60.4933 606.634 65.2533 606.634 71.04C606.634 76.92 605.141 82.1933 602.154 86.86C599.261 91.5267 595.014 95.2133 589.414 97.92C583.908 100.627 577.374 101.98 569.814 101.98ZM646.831 2.29999V101H619.391V2.29999H646.831ZM725.457 34.78C723.871 32.1667 721.677 30.16 718.877 28.76C716.171 27.36 712.951 26.66 709.217 26.66C702.311 26.66 696.851 28.9 692.837 33.38C688.917 37.86 686.957 43.88 686.957 51.44C686.957 59.9333 689.057 66.42 693.257 70.9C697.551 75.2867 703.757 77.48 711.877 77.48C721.491 77.48 728.351 73.14 732.457 64.46H704.877V44.72H756.117V71.32C753.971 76.5467 750.797 81.4467 746.597 86.02C742.491 90.5933 737.264 94.3733 730.917 97.36C724.571 100.253 717.337 101.7 709.217 101.7C699.324 101.7 690.551 99.6 682.897 95.4C675.337 91.1067 669.457 85.18 665.257 77.62C661.151 69.9667 659.097 61.24 659.097 51.44C659.097 41.7333 661.151 33.1 665.257 25.54C669.457 17.8867 675.337 11.96 682.897 7.76C690.457 3.46667 699.184 1.32 709.077 1.32C721.491 1.32 731.757 4.30667 739.877 10.28C747.997 16.2533 753.037 24.42 754.997 34.78H725.457ZM859.834 101H832.394L795.854 45.84V101H768.414V2.29999H795.854L832.394 58.16V2.29999H859.834V101ZM902.905 24.28V40.38H934.405V61.24H902.905V79.02H938.605V101H875.465V2.29999H938.605V24.28H902.905ZM1002.14 101L982.544 64.6H979.604V101H952.164V2.29999H995.424C1003.36 2.29999 1010.08 3.7 1015.58 6.5C1021.09 9.20666 1025.24 12.9867 1028.04 17.84C1030.84 22.6 1032.24 27.9667 1032.24 33.94C1032.24 40.66 1030.38 46.5867 1026.64 51.72C1023 56.76 1017.64 60.3533 1010.54 62.5L1032.8 101H1002.14ZM979.604 45.84H993.184C996.918 45.84 999.718 44.9533 1001.58 43.18C1003.45 41.4067 1004.38 38.84 1004.38 35.48C1004.38 32.3067 1003.4 29.8333 1001.44 28.06C999.578 26.1933 996.824 25.26 993.184 25.26H979.604V45.84Z" fill="#999999"/>
</svg>
